<mxfile host="65bd71144e">
    <diagram id="C5RBs43oDa-KdzZeNtuy" name="Page-1">
        <mxGraphModel dx="1540" dy="1157" grid="1" gridSize="10" guides="1" tooltips="1" connect="1" arrows="1" fold="1" page="1" pageScale="1" pageWidth="827" pageHeight="1800" background="#F1FAEE" math="0" shadow="0">
            <root>
                <mxCell id="WIyWlLk6GJQsqaUBKTNV-0"/>
                <mxCell id="WIyWlLk6GJQsqaUBKTNV-1" parent="WIyWlLk6GJQsqaUBKTNV-0"/>
                <mxCell id="WJljoZ-B6DHMMyOaBsbA-93" style="edgeStyle=elbowEdgeStyle;rounded=0;jumpStyle=arc;jumpSize=8;orthogonalLoop=1;jettySize=auto;html=1;exitX=0.48;exitY=1.018;exitDx=0;exitDy=0;entryX=0.5;entryY=0;entryDx=0;entryDy=0;exitPerimeter=0;fontColor=#1D3557;fillColor=#A8DADC;strokeColor=#457B9D;labelBackgroundColor=#F1FAEE;" parent="WIyWlLk6GJQsqaUBKTNV-1" source="WIyWlLk6GJQsqaUBKTNV-3" target="WJljoZ-B6DHMMyOaBsbA-91" edge="1">
                    <mxGeometry relative="1" as="geometry">
                        <Array as="points">
                            <mxPoint x="303" y="490"/>
                        </Array>
                    </mxGeometry>
                </mxCell>
                <mxCell id="WIyWlLk6GJQsqaUBKTNV-3" value="&lt;b&gt;Download weather data (lat, long)&lt;/b&gt;&lt;br&gt;&lt;i&gt;Timeseries [h]: T_amb, G_bn, G_d&lt;/i&gt;" style="rounded=0;whiteSpace=wrap;html=1;fontSize=12;glass=0;strokeWidth=1;shadow=0;fillColor=#A8DADC;strokeColor=#457B9D;fontColor=#1D3557;" parent="WIyWlLk6GJQsqaUBKTNV-1" vertex="1">
                    <mxGeometry x="205.36" y="450" width="202.09" height="40" as="geometry"/>
                </mxCell>
                <mxCell id="WJljoZ-B6DHMMyOaBsbA-79" style="edgeStyle=elbowEdgeStyle;rounded=0;jumpStyle=arc;jumpSize=8;orthogonalLoop=1;jettySize=auto;html=1;entryX=0.48;entryY=-0.064;entryDx=0;entryDy=0;entryPerimeter=0;fontColor=#1D3557;fillColor=#A8DADC;strokeColor=#457B9D;labelBackgroundColor=#F1FAEE;" parent="WIyWlLk6GJQsqaUBKTNV-1" source="WJljoZ-B6DHMMyOaBsbA-1" target="WIyWlLk6GJQsqaUBKTNV-3" edge="1">
                    <mxGeometry relative="1" as="geometry">
                        <Array as="points">
                            <mxPoint x="302" y="420"/>
                            <mxPoint x="310" y="420"/>
                            <mxPoint x="296" y="427"/>
                        </Array>
                    </mxGeometry>
                </mxCell>
                <mxCell id="WJljoZ-B6DHMMyOaBsbA-1" value="&lt;b&gt;Define building location&lt;br&gt;&lt;/b&gt;&lt;i&gt;lat, long&lt;/i&gt;" style="shape=parallelogram;perimeter=parallelogramPerimeter;whiteSpace=wrap;html=1;fixedSize=1;fillColor=#A8DADC;strokeColor=#457B9D;fontColor=#1D3557;" parent="WIyWlLk6GJQsqaUBKTNV-1" vertex="1">
                    <mxGeometry x="207.91" y="375" width="180" height="50" as="geometry"/>
                </mxCell>
                <mxCell id="WJljoZ-B6DHMMyOaBsbA-99" value="" style="edgeStyle=elbowEdgeStyle;rounded=0;jumpStyle=arc;jumpSize=8;orthogonalLoop=1;jettySize=auto;html=1;fontColor=#1D3557;fillColor=#A8DADC;strokeColor=#457B9D;labelBackgroundColor=#F1FAEE;" parent="WIyWlLk6GJQsqaUBKTNV-1" source="WJljoZ-B6DHMMyOaBsbA-4" target="WJljoZ-B6DHMMyOaBsbA-6" edge="1">
                    <mxGeometry relative="1" as="geometry">
                        <Array as="points">
                            <mxPoint x="300" y="280"/>
                        </Array>
                    </mxGeometry>
                </mxCell>
                <mxCell id="WJljoZ-B6DHMMyOaBsbA-4" value="&lt;b&gt;Define building geometry&lt;/b&gt;&lt;br&gt;&lt;i&gt;A_fac, A_ground, &lt;br&gt;A_win_N,E,S,W&lt;br&gt;V_air&lt;br&gt;&lt;/i&gt;" style="shape=parallelogram;perimeter=parallelogramPerimeter;whiteSpace=wrap;html=1;fixedSize=1;fillColor=#A8DADC;strokeColor=#457B9D;fontColor=#1D3557;" parent="WIyWlLk6GJQsqaUBKTNV-1" vertex="1">
                    <mxGeometry x="214.28" y="210" width="189.36" height="60" as="geometry"/>
                </mxCell>
                <mxCell id="WJljoZ-B6DHMMyOaBsbA-100" value="" style="edgeStyle=elbowEdgeStyle;rounded=0;jumpStyle=arc;jumpSize=8;orthogonalLoop=1;jettySize=auto;html=1;fontColor=#1D3557;fillColor=#A8DADC;strokeColor=#457B9D;labelBackgroundColor=#F1FAEE;" parent="WIyWlLk6GJQsqaUBKTNV-1" source="WJljoZ-B6DHMMyOaBsbA-6" target="WJljoZ-B6DHMMyOaBsbA-1" edge="1">
                    <mxGeometry relative="1" as="geometry"/>
                </mxCell>
                <mxCell id="WJljoZ-B6DHMMyOaBsbA-6" value="&lt;b&gt;Define material properties&lt;/b&gt;&lt;br&gt;&lt;i&gt;U_value_fac, ground, win&lt;br&gt;g_value_win&lt;/i&gt;" style="shape=parallelogram;perimeter=parallelogramPerimeter;whiteSpace=wrap;html=1;fixedSize=1;fillColor=#A8DADC;strokeColor=#457B9D;fontColor=#1D3557;" parent="WIyWlLk6GJQsqaUBKTNV-1" vertex="1">
                    <mxGeometry x="211.72" y="300" width="189.37" height="50" as="geometry"/>
                </mxCell>
                <mxCell id="WJljoZ-B6DHMMyOaBsbA-54" style="edgeStyle=orthogonalEdgeStyle;rounded=0;orthogonalLoop=1;jettySize=auto;html=1;exitX=0.5;exitY=1;exitDx=0;exitDy=0;entryX=0.5;entryY=0;entryDx=0;entryDy=0;labelBackgroundColor=#F1FAEE;strokeColor=#457B9D;fontColor=#1D3557;" parent="WIyWlLk6GJQsqaUBKTNV-1" source="WJljoZ-B6DHMMyOaBsbA-8" target="WJljoZ-B6DHMMyOaBsbA-53" edge="1">
                    <mxGeometry relative="1" as="geometry"/>
                </mxCell>
                <mxCell id="WJljoZ-B6DHMMyOaBsbA-8" value="&lt;b&gt;Calculate transmission through facade&lt;br&gt;&lt;/b&gt;&lt;i&gt;Qdot_trans_fac = U_fac * A_facade * (T_in - T_amb)&lt;/i&gt;" style="rounded=1;whiteSpace=wrap;html=1;fontSize=12;glass=0;strokeWidth=1;shadow=0;fillColor=#A8DADC;strokeColor=#457B9D;fontColor=#1D3557;" parent="WIyWlLk6GJQsqaUBKTNV-1" vertex="1">
                    <mxGeometry x="124.66" y="854.83" width="370" height="50" as="geometry"/>
                </mxCell>
                <mxCell id="WJljoZ-B6DHMMyOaBsbA-21" style="edgeStyle=orthogonalEdgeStyle;rounded=0;orthogonalLoop=1;jettySize=auto;html=1;entryX=0.5;entryY=0;entryDx=0;entryDy=0;labelBackgroundColor=#F1FAEE;strokeColor=#457B9D;fontColor=#1D3557;" parent="WIyWlLk6GJQsqaUBKTNV-1" source="WJljoZ-B6DHMMyOaBsbA-11" target="WJljoZ-B6DHMMyOaBsbA-20" edge="1">
                    <mxGeometry relative="1" as="geometry"/>
                </mxCell>
                <mxCell id="WJljoZ-B6DHMMyOaBsbA-11" value="&lt;b&gt;Calculate ventilation and infiltration heatflow&lt;br&gt;&lt;/b&gt;&lt;i&gt;Qdot_vent = c_p_air * rho_air * V_air * n_50*&amp;nbsp; (T_in - T_amb)&lt;/i&gt;" style="rounded=1;whiteSpace=wrap;html=1;fontSize=12;glass=0;strokeWidth=1;shadow=0;fillColor=#A8DADC;strokeColor=#457B9D;fontColor=#1D3557;" parent="WIyWlLk6GJQsqaUBKTNV-1" vertex="1">
                    <mxGeometry x="130" y="1200" width="370" height="50" as="geometry"/>
                </mxCell>
                <mxCell id="WJljoZ-B6DHMMyOaBsbA-36" style="edgeStyle=orthogonalEdgeStyle;rounded=0;orthogonalLoop=1;jettySize=auto;html=1;exitX=0.5;exitY=1;exitDx=0;exitDy=0;entryX=0.5;entryY=0;entryDx=0;entryDy=0;labelBackgroundColor=#F1FAEE;strokeColor=#457B9D;fontColor=#1D3557;" parent="WIyWlLk6GJQsqaUBKTNV-1" source="WJljoZ-B6DHMMyOaBsbA-13" target="WJljoZ-B6DHMMyOaBsbA-35" edge="1">
                    <mxGeometry relative="1" as="geometry"/>
                </mxCell>
                <mxCell id="WJljoZ-B6DHMMyOaBsbA-13" value="&lt;b&gt;Calculate solar gains&lt;br&gt;&lt;/b&gt;&lt;i&gt;Qdot_sol = g *&amp;nbsp;&lt;font style=&quot;font-size: 14px&quot;&gt;Î£&lt;/font&gt;&lt;font style=&quot;font-size: 12px&quot;&gt;(i=N,E,S,W)&lt;/font&gt;&amp;nbsp;A_i * G_n_i&lt;/i&gt;" style="rounded=1;whiteSpace=wrap;html=1;fontSize=12;glass=0;strokeWidth=1;shadow=0;strokeColor=#457B9D;fillColor=#A8DADC;fontColor=#1D3557;" parent="WIyWlLk6GJQsqaUBKTNV-1" vertex="1">
                    <mxGeometry x="130" y="1350" width="370" height="50" as="geometry"/>
                </mxCell>
                <mxCell id="WJljoZ-B6DHMMyOaBsbA-27" style="edgeStyle=orthogonalEdgeStyle;rounded=0;orthogonalLoop=1;jettySize=auto;html=1;exitX=0.484;exitY=1.004;exitDx=0;exitDy=0;exitPerimeter=0;entryX=1;entryY=0.5;entryDx=0;entryDy=0;labelBackgroundColor=#F1FAEE;strokeColor=#457B9D;fontColor=#1D3557;" parent="WIyWlLk6GJQsqaUBKTNV-1" source="WJljoZ-B6DHMMyOaBsbA-38" target="WJljoZ-B6DHMMyOaBsbA-18" edge="1">
                    <mxGeometry relative="1" as="geometry">
                        <mxPoint x="350" y="785" as="targetPoint"/>
                        <Array as="points">
                            <mxPoint x="164" y="1770"/>
                            <mxPoint x="650" y="1770"/>
                            <mxPoint x="650" y="755"/>
                        </Array>
                    </mxGeometry>
                </mxCell>
                <mxCell id="WJljoZ-B6DHMMyOaBsbA-30" value="dt + 1" style="edgeLabel;html=1;align=center;verticalAlign=middle;resizable=0;points=[];labelBackgroundColor=#F1FAEE;fontColor=#1D3557;" parent="WJljoZ-B6DHMMyOaBsbA-27" vertex="1" connectable="0">
                    <mxGeometry x="0.0591" y="1" relative="1" as="geometry">
                        <mxPoint x="1" y="-43" as="offset"/>
                    </mxGeometry>
                </mxCell>
                <mxCell id="WJljoZ-B6DHMMyOaBsbA-64" style="edgeStyle=orthogonalEdgeStyle;rounded=0;orthogonalLoop=1;jettySize=auto;html=1;exitX=0.5;exitY=1;exitDx=0;exitDy=0;entryX=0.5;entryY=0;entryDx=0;entryDy=0;labelBackgroundColor=#F1FAEE;strokeColor=#457B9D;fontColor=#1D3557;" parent="WIyWlLk6GJQsqaUBKTNV-1" source="WJljoZ-B6DHMMyOaBsbA-15" target="WJljoZ-B6DHMMyOaBsbA-63" edge="1">
                    <mxGeometry relative="1" as="geometry"/>
                </mxCell>
                <mxCell id="WJljoZ-B6DHMMyOaBsbA-15" value="&lt;b&gt;Calculate heating power&lt;br&gt;&lt;/b&gt;Qdot_heat = Qdot_trans + Qdot_vent - Qdot_sol" style="rounded=1;whiteSpace=wrap;html=1;fontSize=12;glass=0;strokeWidth=1;shadow=0;fillColor=#A8DADC;strokeColor=#457B9D;fontColor=#1D3557;" parent="WIyWlLk6GJQsqaUBKTNV-1" vertex="1">
                    <mxGeometry x="29.99999999999997" y="1510" width="277.5" height="50" as="geometry"/>
                </mxCell>
                <mxCell id="WJljoZ-B6DHMMyOaBsbA-103" style="edgeStyle=elbowEdgeStyle;rounded=0;jumpStyle=arc;jumpSize=8;orthogonalLoop=1;jettySize=auto;html=1;exitX=0.5;exitY=1;exitDx=0;exitDy=0;fontColor=#1D3557;fillColor=#A8DADC;strokeColor=#457B9D;labelBackgroundColor=#F1FAEE;" parent="WIyWlLk6GJQsqaUBKTNV-1" source="WJljoZ-B6DHMMyOaBsbA-16" edge="1">
                    <mxGeometry relative="1" as="geometry">
                        <mxPoint x="300" y="208" as="targetPoint"/>
                        <Array as="points">
                            <mxPoint x="300" y="200"/>
                        </Array>
                    </mxGeometry>
                </mxCell>
                <mxCell id="WJljoZ-B6DHMMyOaBsbA-16" value="&lt;b&gt;Define min and max &lt;br&gt;comfort temperatures&lt;br&gt;&lt;/b&gt;&lt;i&gt;T_min, T_max&lt;/i&gt;" style="shape=parallelogram;perimeter=parallelogramPerimeter;whiteSpace=wrap;html=1;fixedSize=1;fillColor=#A8DADC;strokeColor=#457B9D;fontColor=#1D3557;" parent="WIyWlLk6GJQsqaUBKTNV-1" vertex="1">
                    <mxGeometry x="207.91" y="140" width="202.09" height="50" as="geometry"/>
                </mxCell>
                <mxCell id="WJljoZ-B6DHMMyOaBsbA-25" style="edgeStyle=orthogonalEdgeStyle;rounded=0;orthogonalLoop=1;jettySize=auto;html=1;exitX=0.5;exitY=1;exitDx=0;exitDy=0;entryX=0.484;entryY=0;entryDx=0;entryDy=0;entryPerimeter=0;labelBackgroundColor=#F1FAEE;strokeColor=#457B9D;fontColor=#1D3557;" parent="WIyWlLk6GJQsqaUBKTNV-1" source="WJljoZ-B6DHMMyOaBsbA-18" target="WJljoZ-B6DHMMyOaBsbA-8" edge="1">
                    <mxGeometry relative="1" as="geometry"/>
                </mxCell>
                <mxCell id="WJljoZ-B6DHMMyOaBsbA-26" value="dt &amp;lt; last_dt" style="edgeLabel;html=1;align=center;verticalAlign=middle;resizable=0;points=[];labelBackgroundColor=#F1FAEE;fontColor=#1D3557;" parent="WJljoZ-B6DHMMyOaBsbA-25" vertex="1" connectable="0">
                    <mxGeometry x="-0.225" y="-1" relative="1" as="geometry">
                        <mxPoint as="offset"/>
                    </mxGeometry>
                </mxCell>
                <mxCell id="WJljoZ-B6DHMMyOaBsbA-31" value="dt = last_dt" style="edgeStyle=orthogonalEdgeStyle;rounded=0;orthogonalLoop=1;jettySize=auto;html=1;exitX=0;exitY=0.5;exitDx=0;exitDy=0;entryX=0;entryY=0.5;entryDx=0;entryDy=0;labelBackgroundColor=#F1FAEE;strokeColor=#457B9D;fontColor=#1D3557;" parent="WIyWlLk6GJQsqaUBKTNV-1" source="WJljoZ-B6DHMMyOaBsbA-18" target="WJljoZ-B6DHMMyOaBsbA-23" edge="1">
                    <mxGeometry relative="1" as="geometry">
                        <Array as="points">
                            <mxPoint x="190" y="755"/>
                            <mxPoint x="190" y="625"/>
                        </Array>
                    </mxGeometry>
                </mxCell>
                <mxCell id="WJljoZ-B6DHMMyOaBsbA-18" value="for timestep&lt;br&gt;dt in timeseries" style="rhombus;whiteSpace=wrap;html=1;fillColor=#A8DADC;strokeColor=#457B9D;fontColor=#1D3557;" parent="WIyWlLk6GJQsqaUBKTNV-1" vertex="1">
                    <mxGeometry x="243.23000000000005" y="710" width="120" height="90" as="geometry"/>
                </mxCell>
                <mxCell id="WJljoZ-B6DHMMyOaBsbA-22" style="edgeStyle=orthogonalEdgeStyle;rounded=0;orthogonalLoop=1;jettySize=auto;html=1;exitX=0.5;exitY=1;exitDx=0;exitDy=0;entryX=0.5;entryY=0;entryDx=0;entryDy=0;labelBackgroundColor=#F1FAEE;strokeColor=#457B9D;fontColor=#1D3557;" parent="WIyWlLk6GJQsqaUBKTNV-1" source="WJljoZ-B6DHMMyOaBsbA-20" target="WJljoZ-B6DHMMyOaBsbA-13" edge="1">
                    <mxGeometry relative="1" as="geometry"/>
                </mxCell>
                <mxCell id="WJljoZ-B6DHMMyOaBsbA-20" value="&lt;b&gt;Calculate normale irradiance on window areas&lt;/b&gt;&lt;br&gt;&lt;i&gt;from beam normal and diffuse horizontal maybe with pvlib? -&amp;gt; G_n_N,E,S,W&lt;/i&gt;&lt;b&gt;&amp;nbsp;&lt;/b&gt;" style="rounded=1;whiteSpace=wrap;html=1;fillColor=#A8DADC;strokeColor=#457B9D;fontColor=#1D3557;" parent="WIyWlLk6GJQsqaUBKTNV-1" vertex="1">
                    <mxGeometry x="130" y="1270" width="370" height="60" as="geometry"/>
                </mxCell>
                <mxCell id="WJljoZ-B6DHMMyOaBsbA-33" value="done" style="edgeStyle=orthogonalEdgeStyle;rounded=0;orthogonalLoop=1;jettySize=auto;html=1;exitX=1;exitY=0.5;exitDx=0;exitDy=0;entryX=0;entryY=0.5;entryDx=0;entryDy=0;fontColor=#1D3557;fillColor=#A8DADC;strokeColor=#457B9D;labelBackgroundColor=#F1FAEE;" parent="WIyWlLk6GJQsqaUBKTNV-1" source="WJljoZ-B6DHMMyOaBsbA-23" target="WJljoZ-B6DHMMyOaBsbA-32" edge="1">
                    <mxGeometry relative="1" as="geometry"/>
                </mxCell>
                <mxCell id="WJljoZ-B6DHMMyOaBsbA-34" style="edgeStyle=orthogonalEdgeStyle;rounded=0;orthogonalLoop=1;jettySize=auto;html=1;entryX=0.5;entryY=0;entryDx=0;entryDy=0;fontColor=#1D3557;fillColor=#A8DADC;strokeColor=#457B9D;labelBackgroundColor=#F1FAEE;" parent="WIyWlLk6GJQsqaUBKTNV-1" source="WJljoZ-B6DHMMyOaBsbA-23" target="WJljoZ-B6DHMMyOaBsbA-18" edge="1">
                    <mxGeometry relative="1" as="geometry"/>
                </mxCell>
                <mxCell id="WJljoZ-B6DHMMyOaBsbA-23" value="for T_min,T_max&lt;br&gt;as T_in" style="rhombus;whiteSpace=wrap;html=1;fillColor=#A8DADC;strokeColor=#457B9D;fontColor=#1D3557;" parent="WIyWlLk6GJQsqaUBKTNV-1" vertex="1">
                    <mxGeometry x="243.22999999999996" y="580" width="120" height="90" as="geometry"/>
                </mxCell>
                <mxCell id="WJljoZ-B6DHMMyOaBsbA-32" value="&lt;b&gt;Print total heating &lt;br&gt;and cooling demand&lt;/b&gt;&lt;br&gt;&lt;i&gt;Q_heat, Q_cool&lt;/i&gt;" style="shape=parallelogram;perimeter=parallelogramPerimeter;whiteSpace=wrap;html=1;fixedSize=1;fillColor=#A8DADC;strokeColor=#457B9D;fontColor=#1D3557;" parent="WIyWlLk6GJQsqaUBKTNV-1" vertex="1">
                    <mxGeometry x="457.5" y="587.5" width="182.5" height="75" as="geometry"/>
                </mxCell>
                <mxCell id="WJljoZ-B6DHMMyOaBsbA-37" value="yes" style="edgeStyle=orthogonalEdgeStyle;rounded=0;orthogonalLoop=1;jettySize=auto;html=1;exitX=0;exitY=0.5;exitDx=0;exitDy=0;entryX=0.5;entryY=0;entryDx=0;entryDy=0;labelBackgroundColor=#F1FAEE;strokeColor=#457B9D;fontColor=#1D3557;" parent="WIyWlLk6GJQsqaUBKTNV-1" source="WJljoZ-B6DHMMyOaBsbA-35" target="WJljoZ-B6DHMMyOaBsbA-15" edge="1">
                    <mxGeometry relative="1" as="geometry"/>
                </mxCell>
                <mxCell id="WJljoZ-B6DHMMyOaBsbA-46" style="edgeStyle=orthogonalEdgeStyle;rounded=0;orthogonalLoop=1;jettySize=auto;html=1;exitX=1;exitY=0.5;exitDx=0;exitDy=0;entryX=0.5;entryY=0;entryDx=0;entryDy=0;labelBackgroundColor=#F1FAEE;strokeColor=#457B9D;fontColor=#1D3557;" parent="WIyWlLk6GJQsqaUBKTNV-1" source="WJljoZ-B6DHMMyOaBsbA-35" target="WJljoZ-B6DHMMyOaBsbA-42" edge="1">
                    <mxGeometry relative="1" as="geometry"/>
                </mxCell>
                <mxCell id="WJljoZ-B6DHMMyOaBsbA-47" value="no" style="edgeLabel;html=1;align=center;verticalAlign=middle;resizable=0;points=[];labelBackgroundColor=#F1FAEE;fontColor=#1D3557;" parent="WJljoZ-B6DHMMyOaBsbA-46" vertex="1" connectable="0">
                    <mxGeometry x="-0.1957" relative="1" as="geometry">
                        <mxPoint as="offset"/>
                    </mxGeometry>
                </mxCell>
                <mxCell id="WJljoZ-B6DHMMyOaBsbA-35" value="if T_in = T_min" style="rhombus;whiteSpace=wrap;html=1;fillColor=#A8DADC;strokeColor=#457B9D;fontColor=#1D3557;" parent="WIyWlLk6GJQsqaUBKTNV-1" vertex="1">
                    <mxGeometry x="261.59000000000003" y="1420" width="119" height="80" as="geometry"/>
                </mxCell>
                <mxCell id="WJljoZ-B6DHMMyOaBsbA-38" value="&lt;b&gt;Calculate heating demand&lt;br&gt;&lt;/b&gt;Q_heat = Qdot_heat + Qdot_heat * dt" style="rounded=1;whiteSpace=wrap;html=1;fontSize=12;glass=0;strokeWidth=1;shadow=0;fillColor=#A8DADC;strokeColor=#457B9D;fontColor=#1D3557;" parent="WIyWlLk6GJQsqaUBKTNV-1" vertex="1">
                    <mxGeometry x="29.99999999999997" y="1690" width="277.5" height="50" as="geometry"/>
                </mxCell>
                <mxCell id="WJljoZ-B6DHMMyOaBsbA-69" style="edgeStyle=elbowEdgeStyle;rounded=0;jumpStyle=arc;jumpSize=8;orthogonalLoop=1;jettySize=auto;html=1;exitX=0.5;exitY=1;exitDx=0;exitDy=0;entryX=0.5;entryY=0;entryDx=0;entryDy=0;labelBackgroundColor=#F1FAEE;strokeColor=#457B9D;fontColor=#1D3557;" parent="WIyWlLk6GJQsqaUBKTNV-1" source="WJljoZ-B6DHMMyOaBsbA-42" target="WJljoZ-B6DHMMyOaBsbA-68" edge="1">
                    <mxGeometry relative="1" as="geometry"/>
                </mxCell>
                <mxCell id="WJljoZ-B6DHMMyOaBsbA-42" value="&lt;b&gt;Calculate cooling power&lt;br&gt;&lt;/b&gt;Qdot_heat = Qdot_trans + Qdot_vent - Qdot_sol" style="rounded=1;whiteSpace=wrap;html=1;fontSize=12;glass=0;strokeWidth=1;shadow=0;fillColor=#A8DADC;strokeColor=#457B9D;fontColor=#1D3557;" parent="WIyWlLk6GJQsqaUBKTNV-1" vertex="1">
                    <mxGeometry x="340" y="1510" width="277.5" height="50" as="geometry"/>
                </mxCell>
                <mxCell id="WJljoZ-B6DHMMyOaBsbA-74" style="edgeStyle=elbowEdgeStyle;rounded=0;jumpStyle=arc;jumpSize=8;orthogonalLoop=1;jettySize=auto;html=1;exitX=0.5;exitY=1;exitDx=0;exitDy=0;labelBackgroundColor=#F1FAEE;strokeColor=#457B9D;fontColor=#1D3557;" parent="WIyWlLk6GJQsqaUBKTNV-1" source="WJljoZ-B6DHMMyOaBsbA-43" edge="1">
                    <mxGeometry relative="1" as="geometry">
                        <mxPoint x="479" y="1770" as="targetPoint"/>
                        <Array as="points">
                            <mxPoint x="479" y="1760"/>
                        </Array>
                    </mxGeometry>
                </mxCell>
                <mxCell id="WJljoZ-B6DHMMyOaBsbA-43" value="&lt;b&gt;Calculate cooling demand&lt;br&gt;&lt;/b&gt;Q_cool = Qdot_cool + Qdot_cool * dt" style="rounded=1;whiteSpace=wrap;html=1;fontSize=12;glass=0;strokeWidth=1;shadow=0;fillColor=#A8DADC;strokeColor=#457B9D;fontColor=#1D3557;" parent="WIyWlLk6GJQsqaUBKTNV-1" vertex="1">
                    <mxGeometry x="340" y="1690" width="277.5" height="50" as="geometry"/>
                </mxCell>
                <mxCell id="WJljoZ-B6DHMMyOaBsbA-83" value="" style="edgeStyle=elbowEdgeStyle;rounded=0;jumpStyle=arc;jumpSize=8;orthogonalLoop=1;jettySize=auto;html=1;fontColor=#1D3557;fillColor=#A8DADC;strokeColor=#457B9D;labelBackgroundColor=#F1FAEE;" parent="WIyWlLk6GJQsqaUBKTNV-1" source="WJljoZ-B6DHMMyOaBsbA-50" target="WJljoZ-B6DHMMyOaBsbA-16" edge="1">
                    <mxGeometry relative="1" as="geometry"/>
                </mxCell>
                <mxCell id="WJljoZ-B6DHMMyOaBsbA-50" value="&lt;b&gt;Set constants&lt;br&gt;&lt;/b&gt;&lt;i&gt;c_p_air, rho_air, n_50&lt;/i&gt;" style="rounded=0;whiteSpace=wrap;html=1;fillColor=#A8DADC;strokeColor=#457B9D;fontColor=#1D3557;" parent="WIyWlLk6GJQsqaUBKTNV-1" vertex="1">
                    <mxGeometry x="228.25" y="80" width="140" height="40" as="geometry"/>
                </mxCell>
                <mxCell id="WJljoZ-B6DHMMyOaBsbA-57" style="edgeStyle=orthogonalEdgeStyle;rounded=0;orthogonalLoop=1;jettySize=auto;html=1;exitX=0.5;exitY=1;exitDx=0;exitDy=0;entryX=0.5;entryY=0;entryDx=0;entryDy=0;labelBackgroundColor=#F1FAEE;strokeColor=#457B9D;fontColor=#1D3557;" parent="WIyWlLk6GJQsqaUBKTNV-1" source="WJljoZ-B6DHMMyOaBsbA-53" target="WJljoZ-B6DHMMyOaBsbA-55" edge="1">
                    <mxGeometry relative="1" as="geometry"/>
                </mxCell>
                <mxCell id="WJljoZ-B6DHMMyOaBsbA-53" value="&lt;b&gt;Calculate transmission through roof&lt;br&gt;&lt;/b&gt;&lt;i&gt;Qdot_trans_roof = U_roof * A_roof * (T_in - T_amb)&lt;/i&gt;" style="rounded=1;whiteSpace=wrap;html=1;fontSize=12;glass=0;strokeWidth=1;shadow=0;fillColor=#A8DADC;strokeColor=#457B9D;fontColor=#1D3557;" parent="WIyWlLk6GJQsqaUBKTNV-1" vertex="1">
                    <mxGeometry x="125.4" y="924.83" width="370" height="50" as="geometry"/>
                </mxCell>
                <mxCell id="WJljoZ-B6DHMMyOaBsbA-58" style="edgeStyle=orthogonalEdgeStyle;rounded=0;orthogonalLoop=1;jettySize=auto;html=1;exitX=0.5;exitY=1;exitDx=0;exitDy=0;entryX=0.5;entryY=0;entryDx=0;entryDy=0;labelBackgroundColor=#F1FAEE;strokeColor=#457B9D;fontColor=#1D3557;" parent="WIyWlLk6GJQsqaUBKTNV-1" source="WJljoZ-B6DHMMyOaBsbA-55" target="WJljoZ-B6DHMMyOaBsbA-56" edge="1">
                    <mxGeometry relative="1" as="geometry"/>
                </mxCell>
                <mxCell id="WJljoZ-B6DHMMyOaBsbA-55" value="&lt;b&gt;Calculate transmission through ground&lt;br&gt;&lt;/b&gt;&lt;i&gt;Qdot_trans_ground = U_ground * A_ground * (T_in - T_ground)&lt;/i&gt;" style="rounded=1;whiteSpace=wrap;html=1;fontSize=12;glass=0;strokeWidth=1;shadow=0;fillColor=#A8DADC;strokeColor=#457B9D;fontColor=#1D3557;" parent="WIyWlLk6GJQsqaUBKTNV-1" vertex="1">
                    <mxGeometry x="124.72" y="994.83" width="370.68" height="50" as="geometry"/>
                </mxCell>
                <mxCell id="WJljoZ-B6DHMMyOaBsbA-61" style="edgeStyle=orthogonalEdgeStyle;rounded=0;orthogonalLoop=1;jettySize=auto;html=1;exitX=0.5;exitY=1;exitDx=0;exitDy=0;entryX=0.5;entryY=0;entryDx=0;entryDy=0;labelBackgroundColor=#F1FAEE;strokeColor=#457B9D;fontColor=#1D3557;" parent="WIyWlLk6GJQsqaUBKTNV-1" source="WJljoZ-B6DHMMyOaBsbA-56" target="WJljoZ-B6DHMMyOaBsbA-59" edge="1">
                    <mxGeometry relative="1" as="geometry"/>
                </mxCell>
                <mxCell id="WJljoZ-B6DHMMyOaBsbA-56" value="&lt;b&gt;Calculate transmission through windows&lt;br&gt;&lt;/b&gt;&lt;i&gt;Qdot_trans_win = U_win *&amp;nbsp;&lt;/i&gt;&lt;i&gt;&lt;font style=&quot;font-size: 14px&quot;&gt;Î£&lt;/font&gt;(i=N,E,S,W)*&amp;nbsp;&lt;/i&gt;&lt;i&gt;A_win_i * (T_in - T_amb)&lt;/i&gt;" style="rounded=1;whiteSpace=wrap;html=1;fontSize=12;glass=0;strokeWidth=1;shadow=0;fillColor=#A8DADC;strokeColor=#457B9D;fontColor=#1D3557;" parent="WIyWlLk6GJQsqaUBKTNV-1" vertex="1">
                    <mxGeometry x="123.32" y="1060" width="373.54" height="50" as="geometry"/>
                </mxCell>
                <mxCell id="WJljoZ-B6DHMMyOaBsbA-62" style="edgeStyle=orthogonalEdgeStyle;rounded=0;orthogonalLoop=1;jettySize=auto;html=1;exitX=0.5;exitY=1;exitDx=0;exitDy=0;entryX=0.484;entryY=-0.019;entryDx=0;entryDy=0;entryPerimeter=0;labelBackgroundColor=#F1FAEE;strokeColor=#457B9D;fontColor=#1D3557;" parent="WIyWlLk6GJQsqaUBKTNV-1" source="WJljoZ-B6DHMMyOaBsbA-59" target="WJljoZ-B6DHMMyOaBsbA-11" edge="1">
                    <mxGeometry relative="1" as="geometry"/>
                </mxCell>
                <mxCell id="WJljoZ-B6DHMMyOaBsbA-59" value="&lt;b&gt;Calculate total transmission heatflow&lt;br&gt;&lt;/b&gt;&lt;i&gt;Qdot_trans = Qdot_trans_fac + Qdot_trans_roof + Qdot_trans_ground + Qdot_trans_win&lt;/i&gt;" style="rounded=1;whiteSpace=wrap;html=1;fontSize=12;glass=0;strokeWidth=1;shadow=0;fillColor=#A8DADC;strokeColor=#457B9D;fontColor=#1D3557;" parent="WIyWlLk6GJQsqaUBKTNV-1" vertex="1">
                    <mxGeometry x="124.31999999999998" y="1130" width="373.54" height="50" as="geometry"/>
                </mxCell>
                <mxCell id="WJljoZ-B6DHMMyOaBsbA-65" value="yes" style="edgeStyle=orthogonalEdgeStyle;rounded=0;orthogonalLoop=1;jettySize=auto;html=1;exitX=0.5;exitY=1;exitDx=0;exitDy=0;entryX=0.5;entryY=0;entryDx=0;entryDy=0;labelBackgroundColor=#F1FAEE;strokeColor=#457B9D;fontColor=#1D3557;" parent="WIyWlLk6GJQsqaUBKTNV-1" source="WJljoZ-B6DHMMyOaBsbA-63" target="WJljoZ-B6DHMMyOaBsbA-38" edge="1">
                    <mxGeometry x="-0.3333" relative="1" as="geometry">
                        <mxPoint as="offset"/>
                    </mxGeometry>
                </mxCell>
                <mxCell id="WJljoZ-B6DHMMyOaBsbA-66" style="edgeStyle=elbowEdgeStyle;rounded=0;orthogonalLoop=1;jettySize=auto;html=1;exitX=1;exitY=0.5;exitDx=0;exitDy=0;jumpStyle=arc;jumpSize=8;labelBackgroundColor=#F1FAEE;strokeColor=#457B9D;fontColor=#1D3557;" parent="WIyWlLk6GJQsqaUBKTNV-1" source="WJljoZ-B6DHMMyOaBsbA-63" edge="1">
                    <mxGeometry relative="1" as="geometry">
                        <mxPoint x="320" y="1770" as="targetPoint"/>
                        <Array as="points">
                            <mxPoint x="320" y="1700"/>
                            <mxPoint x="320" y="1690"/>
                        </Array>
                    </mxGeometry>
                </mxCell>
                <mxCell id="WJljoZ-B6DHMMyOaBsbA-67" value="no" style="edgeLabel;html=1;align=center;verticalAlign=middle;resizable=0;points=[];labelBackgroundColor=#F1FAEE;fontColor=#1D3557;" parent="WJljoZ-B6DHMMyOaBsbA-66" vertex="1" connectable="0">
                    <mxGeometry x="-0.6599" y="-1" relative="1" as="geometry">
                        <mxPoint as="offset"/>
                    </mxGeometry>
                </mxCell>
                <mxCell id="WJljoZ-B6DHMMyOaBsbA-63" value="if Qdot_heat &amp;gt; 0" style="rhombus;whiteSpace=wrap;html=1;fillColor=#A8DADC;strokeColor=#457B9D;fontColor=#1D3557;" parent="WIyWlLk6GJQsqaUBKTNV-1" vertex="1">
                    <mxGeometry x="109.25000000000003" y="1580" width="119" height="80" as="geometry"/>
                </mxCell>
                <mxCell id="WJljoZ-B6DHMMyOaBsbA-70" style="edgeStyle=elbowEdgeStyle;rounded=0;jumpStyle=arc;jumpSize=8;orthogonalLoop=1;jettySize=auto;html=1;exitX=0.5;exitY=1;exitDx=0;exitDy=0;entryX=0.5;entryY=0;entryDx=0;entryDy=0;labelBackgroundColor=#F1FAEE;strokeColor=#457B9D;fontColor=#1D3557;" parent="WIyWlLk6GJQsqaUBKTNV-1" source="WJljoZ-B6DHMMyOaBsbA-68" target="WJljoZ-B6DHMMyOaBsbA-43" edge="1">
                    <mxGeometry relative="1" as="geometry"/>
                </mxCell>
                <mxCell id="WJljoZ-B6DHMMyOaBsbA-71" value="yes" style="edgeLabel;html=1;align=center;verticalAlign=middle;resizable=0;points=[];labelBackgroundColor=#F1FAEE;fontColor=#1D3557;" parent="WJljoZ-B6DHMMyOaBsbA-70" vertex="1" connectable="0">
                    <mxGeometry x="-0.3506" y="-2" relative="1" as="geometry">
                        <mxPoint as="offset"/>
                    </mxGeometry>
                </mxCell>
                <mxCell id="WJljoZ-B6DHMMyOaBsbA-72" style="edgeStyle=elbowEdgeStyle;rounded=0;jumpStyle=arc;jumpSize=8;orthogonalLoop=1;jettySize=auto;html=1;exitX=1;exitY=0.5;exitDx=0;exitDy=0;labelBackgroundColor=#F1FAEE;strokeColor=#457B9D;fontColor=#1D3557;" parent="WIyWlLk6GJQsqaUBKTNV-1" source="WJljoZ-B6DHMMyOaBsbA-68" edge="1">
                    <mxGeometry relative="1" as="geometry">
                        <mxPoint x="650" y="1620" as="targetPoint"/>
                        <Array as="points">
                            <mxPoint x="620" y="1620"/>
                        </Array>
                    </mxGeometry>
                </mxCell>
                <mxCell id="WJljoZ-B6DHMMyOaBsbA-73" value="no" style="edgeLabel;html=1;align=center;verticalAlign=middle;resizable=0;points=[];labelBackgroundColor=#F1FAEE;fontColor=#1D3557;" parent="WJljoZ-B6DHMMyOaBsbA-72" vertex="1" connectable="0">
                    <mxGeometry x="-0.1427" relative="1" as="geometry">
                        <mxPoint as="offset"/>
                    </mxGeometry>
                </mxCell>
                <mxCell id="WJljoZ-B6DHMMyOaBsbA-68" value="if Qdot_cool &amp;gt; 0" style="rhombus;whiteSpace=wrap;html=1;fillColor=#A8DADC;strokeColor=#457B9D;fontColor=#1D3557;" parent="WIyWlLk6GJQsqaUBKTNV-1" vertex="1">
                    <mxGeometry x="419.25000000000006" y="1580" width="119" height="80" as="geometry"/>
                </mxCell>
                <mxCell id="WJljoZ-B6DHMMyOaBsbA-84" value="&lt;span&gt;A_fac : Facade area [m^2]&lt;/span&gt;&lt;br&gt;A_ground : Ground area [m^2]&lt;br&gt;A_win: Window Area [m^2]&lt;br&gt;facing N,E,S,W: North, East, South, West&lt;br&gt;V_air: Total volume of the building [m^3]" style="text;html=1;strokeColor=#457B9D;fillColor=#A8DADC;align=left;verticalAlign=middle;whiteSpace=wrap;rounded=0;fontColor=#1D3557;" parent="WIyWlLk6GJQsqaUBKTNV-1" vertex="1">
                    <mxGeometry x="463.20000000000005" y="200" width="235.5" height="70" as="geometry"/>
                </mxCell>
                <mxCell id="WJljoZ-B6DHMMyOaBsbA-85" value="lat: Latitude [decimal degrees]&lt;br&gt;long: Longitude [decimal degrees]" style="text;html=1;strokeColor=#457B9D;fillColor=#A8DADC;align=left;verticalAlign=middle;whiteSpace=wrap;rounded=0;fontColor=#1D3557;" parent="WIyWlLk6GJQsqaUBKTNV-1" vertex="1">
                    <mxGeometry x="463.20000000000005" y="375" width="212.14" height="20" as="geometry"/>
                </mxCell>
                <mxCell id="WJljoZ-B6DHMMyOaBsbA-86" value="T_amb: Ambient/Air temperature [Â°C] G_bn: Beam normal irradiance [W/m^2]&lt;br&gt;G_d: Diffuse irradiance [W/m^2]" style="text;html=1;strokeColor=#457B9D;fillColor=#A8DADC;align=left;verticalAlign=middle;whiteSpace=wrap;rounded=0;fontColor=#1D3557;" parent="WIyWlLk6GJQsqaUBKTNV-1" vertex="1">
                    <mxGeometry x="463.20000000000005" y="430" width="215.5" height="40" as="geometry"/>
                </mxCell>
                <mxCell id="WJljoZ-B6DHMMyOaBsbA-87" value="&lt;span&gt;c_p_air: heat capacity of the air [J/kg/K]&lt;/span&gt;&lt;br&gt;rho_air: density of the air [kg/m^3]&lt;br&gt;n_50: air exchange rate [1/h]" style="text;html=1;strokeColor=#457B9D;fillColor=#A8DADC;align=left;verticalAlign=middle;whiteSpace=wrap;rounded=0;fontColor=#1D3557;" parent="WIyWlLk6GJQsqaUBKTNV-1" vertex="1">
                    <mxGeometry x="460" y="80" width="235.5" height="40" as="geometry"/>
                </mxCell>
                <mxCell id="WJljoZ-B6DHMMyOaBsbA-88" value="T_min: Minimum comfort temperature [Â°C]&lt;br&gt;T_max: Maximum comfort temperature [Â°C]" style="text;html=1;strokeColor=#457B9D;fillColor=#A8DADC;align=left;verticalAlign=middle;whiteSpace=wrap;rounded=0;fontColor=#1D3557;" parent="WIyWlLk6GJQsqaUBKTNV-1" vertex="1">
                    <mxGeometry x="462.20000000000005" y="140" width="235.5" height="40" as="geometry"/>
                </mxCell>
                <mxCell id="WJljoZ-B6DHMMyOaBsbA-89" value="U_value: Heat transfer coefficient [W/m^2/K]&lt;br&gt;g_value: Solar heat gain coefficient [-]" style="text;html=1;strokeColor=#457B9D;fillColor=#A8DADC;align=left;verticalAlign=middle;whiteSpace=wrap;rounded=0;fontColor=#1D3557;" parent="WIyWlLk6GJQsqaUBKTNV-1" vertex="1">
                    <mxGeometry x="463.20000000000005" y="290" width="253.14" height="40" as="geometry"/>
                </mxCell>
                <mxCell id="WJljoZ-B6DHMMyOaBsbA-90" value="&lt;div style=&quot;text-align: left&quot;&gt;&lt;span style=&quot;font-size: 14px&quot;&gt;Flowchart:&amp;nbsp;&lt;/span&gt;&lt;b style=&quot;font-size: 14px&quot;&gt;Building model for heating and cooling demand&amp;nbsp;in light of current climate change predictions.&lt;/b&gt;&lt;/div&gt;" style="text;html=1;strokeColor=#457B9D;fillColor=#A8DADC;align=center;verticalAlign=middle;whiteSpace=wrap;rounded=0;fontColor=#1D3557;" parent="WIyWlLk6GJQsqaUBKTNV-1" vertex="1">
                    <mxGeometry x="20" y="20" width="710" height="20" as="geometry"/>
                </mxCell>
                <mxCell id="WJljoZ-B6DHMMyOaBsbA-94" style="edgeStyle=elbowEdgeStyle;rounded=0;jumpStyle=arc;jumpSize=8;orthogonalLoop=1;jettySize=auto;html=1;exitX=0.5;exitY=1;exitDx=0;exitDy=0;entryX=0.5;entryY=0;entryDx=0;entryDy=0;fontColor=#1D3557;fillColor=#A8DADC;strokeColor=#457B9D;labelBackgroundColor=#F1FAEE;" parent="WIyWlLk6GJQsqaUBKTNV-1" source="WJljoZ-B6DHMMyOaBsbA-91" target="WJljoZ-B6DHMMyOaBsbA-23" edge="1">
                    <mxGeometry relative="1" as="geometry">
                        <Array as="points">
                            <mxPoint x="303" y="560"/>
                        </Array>
                    </mxGeometry>
                </mxCell>
                <mxCell id="WJljoZ-B6DHMMyOaBsbA-91" value="&lt;b&gt;Initalize demands&lt;/b&gt;&lt;br&gt;&lt;i&gt;Q_heat, Q_cool = 0, 0&lt;/i&gt;" style="rounded=0;whiteSpace=wrap;html=1;fontSize=12;glass=0;strokeWidth=1;shadow=0;fillColor=#A8DADC;strokeColor=#457B9D;fontColor=#1D3557;" parent="WIyWlLk6GJQsqaUBKTNV-1" vertex="1">
                    <mxGeometry x="234.32" y="510" width="137.81" height="40" as="geometry"/>
                </mxCell>
                <mxCell id="WJljoZ-B6DHMMyOaBsbA-92" value="Q_heat: Heating demand [Wh]&lt;br&gt;Q_cool: Cooling demand [Wh]" style="text;html=1;strokeColor=#457B9D;fillColor=#A8DADC;align=left;verticalAlign=middle;whiteSpace=wrap;rounded=0;fontColor=#1D3557;" parent="WIyWlLk6GJQsqaUBKTNV-1" vertex="1">
                    <mxGeometry x="463.20000000000005" y="500" width="215.5" height="40" as="geometry"/>
                </mxCell>
            </root>
        </mxGraphModel>
    </diagram>
</mxfile>